<?xml version="1.0" encoding="UTF-8" standalone="no"?>
<svg
   xmlns:dc="http://purl.org/dc/elements/1.1/"
   xmlns:cc="http://creativecommons.org/ns#"
   xmlns:rdf="http://www.w3.org/1999/02/22-rdf-syntax-ns#"
   xmlns:svg="http://www.w3.org/2000/svg"
   xmlns="http://www.w3.org/2000/svg"
   xmlns:sodipodi="http://sodipodi.sourceforge.net/DTD/sodipodi-0.dtd"
   xmlns:inkscape="http://www.inkscape.org/namespaces/inkscape"
   sodipodi:docname="trollface.svg"
   inkscape:version="1.0 (4035a4fb49, 2020-05-01)"
   id="svg8"
   version="1.1"
   viewBox="0 0 936.3761 761.74097"
   height="761.74097mm"
   width="936.3761mm">
  <defs
     id="defs2" />
  <sodipodi:namedview
     inkscape:window-maximized="1"
     inkscape:window-y="-8"
     inkscape:window-x="-8"
     inkscape:window-height="1017"
     inkscape:window-width="1920"
     fit-margin-bottom="0"
     fit-margin-right="0"
     fit-margin-left="0"
     fit-margin-top="0"
     showgrid="false"
     inkscape:document-rotation="0"
     inkscape:current-layer="layer1"
     inkscape:document-units="mm"
     inkscape:cy="117.69183"
     inkscape:cx="3378.7534"
     inkscape:zoom="0.082103197"
     inkscape:pageshadow="2"
     inkscape:pageopacity="0.0"
     borderopacity="1.0"
     bordercolor="#666666"
     pagecolor="#ffffff"
     id="base" />
  <metadata
     id="metadata5">
    <rdf:RDF>
      <cc:Work
         rdf:about="">
        <dc:format>image/svg+xml</dc:format>
        <dc:type
           rdf:resource="http://purl.org/dc/dcmitype/StillImage" />
        <dc:title></dc:title>
      </cc:Work>
    </rdf:RDF>
  </metadata>
  <g
     transform="translate(468.6491,247.4045)"
     id="layer1"
     inkscape:groupmode="layer"
     inkscape:label="Layer 1">
    <path
       id="path1447"
       d="m 209.44555,514.1749 c -25.12635,-0.8273 -36.53127,-1.7867 -51.68195,-4.3473 -13.30705,-2.2491 -22.652,-4.3398 -55.3861,-12.3915 -37.489766,-9.2213 -68.386846,-15.7766 -79.595486,-16.8874 -4.40538,-0.4366 -7.95228,-1.3774 -15.2468701,-4.044 -19.1307499,-6.9935 -41.1648499,-16.8627 -79.6062499,-35.65626 -37.836904,-18.49801 -70.124004,-33.4445 -88.034804,-40.75338 -11.7133,-4.77986 -15.6614,-6.56752 -27.6763,-12.53141 -34.0917,-16.92218 -77.1778,-41.96059 -95.2537,-55.35422 -11.1545,-8.26512 -43.5531,-38.32789 -55.1373,-51.16216 -14.7358,-16.32581 -25.1338,-31.92367 -34.5922,-51.89135 -7.2536,-15.31306 -14.2588,-27.12569 -22.993,-38.77254 -5.4748,-7.30059 -8.8032,-11.11088 -17.1029,-19.57917 -17.7269,-18.08702 -30.1535,-33.09517 -41.1677,-49.72043 -9.451,-14.26559 -12.0731,-20.52953 -13.6688,-32.653177 -0.7861,-5.97334 -1.2032,-30.09451 -0.7877,-45.55663 0.5509,-20.49698 1.4375,-26.37646 5.2558,-34.8531203 2.9148,-6.4707 9.7297,-16.66696 16.8622,-25.2284297 9.0534,-10.86736 23.5067,-26.05116 34.5497,-36.29592 29.4603,-27.33075 37.4114,-37.80758 53.591,-70.614513 12.4521,-25.2488 23.9475,-44.44705 37.2794,-62.25934 12.4312,-16.60898 35.8845,-37.88615 53.0846,-48.15916 16.1011,-9.61661 23.5893,-10.98809 67.7334,-12.40558 18.7752,-0.60288 169.787304,-0.62172 194.5569039,-0.0243 10.18647,0.2457 25.2677201,0.60358 33.5139001,0.79529 38.83071,0.90274 76.281026,2.48343 96.308326,4.06495 22.55107,1.78083 63.98979,7.17725 94.72083,12.33518 51.72674,8.68186 80.5066,17.90598 111.83055,35.84234 19.34449,11.07683 41.18348,27.10856 50.64608,37.17865 9.63954,10.25839 14.95382,19.00145 16.73006,27.52436 0.32261,1.54799 0.72418,5.67203 0.89231,9.16453 0.61631,12.80017 3.88846,27.794313 7.72351,35.391463 4.49668,8.90787 13.20867,18.46707 22.50842,24.69726 7.82359,5.24125 16.71038,14.03936 23.38874,23.15528 2.42136,3.30517 6.11713,9.72036 7.77519,13.49633 4.05906,9.24394 5.86218,17.4776297 6.66524,30.4360597 0.98884,15.9560703 0.7016,47.2991803 -0.51887,56.6208303 -1.10676,8.45317 -3.08994,15.60443 -6.7015,24.16528 -1.60666,3.80836 -10.80347,22.285987 -18.30137,36.769847 -9.50507,18.36113 -12.52322,28.28674 -14.13531,46.4857 -1.94155,21.91794 -1.22481,108.5965 1.41333,170.92084 0.70721,16.70776 1.08275,22.97031 2.62308,43.74444 2.29877,31.00338 1.86058,38.59195 -2.84611,49.2875 -1.85875,4.22391 -7.07957,13.36142 -10.78205,18.87075 -7.75896,11.54551 -18.39076,23.42971 -25.99513,29.05721 -6.9947,5.1763 -19.58876,12.6721 -30.12514,17.93 -20.92452,10.4419 -31.09581,12.0879 -80.87854,13.089 -15.1699,0.3051 -63.34022,0.3847 -71.43749,0.1181 z m 81.13888,-15.9973 c 25.23829,-1.2425 39.85292,-5.1984 64.38194,-17.4269 15.33458,-7.6448 22.40975,-12.8318 32.92927,-24.1411 6.79806,-7.3085 11.95535,-14.14325 16.03075,-21.24495 5.41792,-9.44114 8.15188,-16.19116 8.92104,-22.02571 0.5764,-4.37237 0.21068,-18.86624 -0.71215,-28.22223 -1.74572,-17.699 -2.25051,-24.90216 -3.0038,-42.8625 -1.7297,-41.24261 -1.76914,-43.66775 -1.77348,-109.00833 -0.004,-67.01275 0.0243,-68.30624 1.78731,-80.43333 1.44893,-9.96675 3.63562,-17.5816 7.74975,-26.9875 1.59823,-3.6539 7.76397,-15.99519 13.92365,-27.869447 6.56501,-12.65562 11.72361,-24.58579 13.88124,-32.10277 2.5655,-8.93806 3.40931,-16.74598 3.42169,-31.66137 0.0124,-14.95985 -0.75378,-24.3263103 -2.85206,-34.8654103 -2.18176,-10.9585297 -4.16744,-15.1999097 -11.05257,-23.6079497 -3.70229,-4.52123 -14.89808,-15.53393 -20.86592,-20.52467 -8.67138,-7.25166 -17.78289,-17.08411 -22.49801,-24.27811 -2.05394,-3.13377 -5.22386,-9.53292 -6.2217,-12.55985 -2.64791,-8.03234 -4.96753,-20.764123 -4.97265,-27.293503 -0.008,-10.55326 -5.03311,-24.40912 -11.53114,-31.79664 -13.22101,-15.03081 -53.0166,-39.38607 -84.95149,-51.99111 -16.79967,-6.63099 -26.12327,-8.55429 -49.03611,-10.1153 -7.8898,-0.53751 -37.30639,-0.51921 -47.97778,0.0298 -20.25328,1.04207 -50.94481,0.82774 -72.14305,-0.50381 -15.358706,-0.96474 -36.313136,-2.67954 -38.805546,-3.17563 -1.2397,-0.24675 -23.95844,-2.81965 -35.98333,-4.07512 -18.30377,-1.91101 -36.9707601,-3.5005 -54.32779,-4.62599 -9.0859,-0.58916 -30.5828,-0.60174 -36.5125,-0.0214 -17.8926,1.75126 -35.7246,4.78212 -49.212504,8.36455 -39.3878,10.46154 -105.2718,42.90952 -141.4639,69.67121 -11.4288,8.45086 -21.584,14.73215 -24.1267,14.92307 -1.6187,0.12154 -1.4673,-0.6419 0.5519,-2.7843 10.6001,-11.24687 68.0684,-48.66942 96.7762,-63.01937 19.2745,-9.63457 53.2219,-21.61197 74.720904,-26.36317 10.4772,-2.31542 25.5221,-4.4255 37.8152,-5.30366 8.9066,-0.63624 28.8653,-0.82006 41.275,-0.38014 23.4796099,0.83233 39.17045,2.12133 55.75168,4.57999 23.60912,3.50074 75.422186,7.11746 121.871946,8.50706 23.78152,0.71145 35.82634,0.20682 38.24795,-1.60244 0.66763,-0.49881 0.66763,-0.51638 0,-1.2546 -7.51279,-8.30709 -97.39908,-15.30524 -226.278476,-17.61704 -25.9184,-0.46491 -133.468804,-0.45978 -157.714704,0.008 -50.4852,0.97305 -58.6263,2.44526 -77.2594,13.97124 -10.9332,6.76296 -26.854,20.72571 -37.5741,32.95283 -12.632,14.40794 -28.4011,40.06376 -41.566,67.62655 -7.9499,16.644443 -12.4571,25.236813 -18.4325,35.139073 -4.0539,6.71791 -6.3266,9.88433 -10.2767,14.3175 -4.9525,5.55823 -5.5756,7.25986 -3.0453,8.31706 2.5786,1.07741 10.1534,1.52743 35.777,2.12551 4.9477,0.11548 9.6064,0.29863 10.3526,0.407 3.292,0.47805 0.3101,0.93128 -17.0554,2.59228 -24.389,2.3328 -43.1405,5.86269 -50.6236,9.5297 -13.0712,6.40538 -42.116,40.2848897 -52.908,61.71492 -3.3075,6.56789 -5.404,13.43192 -6.3953,20.93871 -0.7914,5.99301 -0.5175,18.42429 0.5379,24.41046 3.0499,17.29908 9.7218,33.585227 20.233,49.388887 7.6381,11.48398 14.1752,18.8686 21.8568,24.69085 4.6589,3.53109 9.088,5.96441 16.9743,9.32547 9.9533,4.24201 17.5852,8.85638 17.0765,10.32481 -0.301,0.86897 -4.421,0.45805 -9.464,-0.94396 -8.4911,-2.36058 -9.6543,-1.84517 -6.0534,2.68217 1.1392,1.43221 3.8065,4.48758 5.9275,6.78974 5.654,6.13681 8.8351,10.20233 13.7012,17.51009 7.4171,11.13892 13.4102,21.75016 18.7289,33.16111 7.6954,16.51003 15.805,29.41948 26.7943,42.65319 10.9646,13.20377 44.5191,44.38277 58.5792,54.43196 25.235,18.03622 86.2894,51.52965 115.0056,63.09018 18.5431,7.46506 46.9602,20.63249 87.136104,40.37566 28.0145,13.76683 45.6675,21.82735 63.1471999,28.83352 15.0696401,6.04019 22.3122801,8.37456 29.2805501,9.43746 14.32356,2.1849 39.46906,7.8582 71.4375,16.1177 58.526176,15.121 73.059076,18.2146 98.248606,20.9142 23.08655,2.4743 71.48099,3.937 93.83888,2.8362 z m -40.92222,-67.62586 c -18.40307,-0.26271 -72.82088,-2.03267 -90.48749,-2.94312 C 106.6013,424.89925 63.061684,418.72211 -2.5739061,404.66078 -38.161006,397.03679 -44.380906,395.58116 -57.427806,391.82341 -105.97161,377.8418 -141.67451,363.46484 -198.89471,334.85703 c -35.6742,-17.83567 -59.9927,-31.52595 -65.7049,-36.9891 -4.7276,-4.52152 3.2808,-1.72276 23.548,8.22949 5.2387,2.57253 12.1443,6.06774 15.3458,7.76714 53.5663,28.43449 94.4175,47.27604 134.055504,61.82942 22.297,8.1865 36.2228,11.81743 85.5485999,22.30537 100.1371801,21.29176 124.6240361,24.28804 224.7194761,27.49719 32.20367,1.03251 45.34475,1.20996 55.15779,0.74493 24.4192,-1.15722 30.83831,-3.36702 58.92369,-20.28466 15.29761,-9.21476 21.77479,-13.79512 26.36421,-18.64352 5.10117,-5.389 6.29786,-8.58997 7.90776,-21.15129 0.7003,-5.46428 0.85574,-6.22589 1.20044,-5.88123 0.0838,0.0839 0.3515,4.67607 0.59481,10.20491 0.49848,11.32907 0.29842,13.80028 -1.41294,17.45326 -2.65716,5.67182 -7.1634,9.31714 -25.88433,20.93919 -26.05581,16.17564 -31.99715,18.7155 -48.41532,20.69709 -4.90023,0.59143 -23.47892,1.25327 -31.92639,1.13739 -2.8134,-0.0386 -7.97278,-0.11099 -11.46528,-0.16087 z M 166.75944,401.1662 c -29.91912,-1.01956 -56.86848,-2.3162 -91.722216,-4.41318 -37.44877,-2.25305 -56.1498,-4.45015 -73.8193301,-8.67262 -23.2387999,-5.55339 -69.3474999,-22.46531 -113.6821039,-41.69671 -24.4648,-10.61237 -37.0155,-16.47486 -59.0902,-27.60123 -20.4696,-10.31734 -32.2729,-16.71489 -39.7757,-21.55888 -4.8172,-3.11016 -4.6806,-3.68198 0.463,-1.93778 9.0722,3.0764 29.396,12.10769 56.0696,24.91571 40.6156,19.50261 83.550404,37.47361 123.648604,51.75504 42.68507,15.20275 51.83532,16.63044 131.762516,20.55887 101.18086,4.97303 124.31066,5.17228 143.96698,1.24022 16.48985,-3.29865 31.52545,-9.1017 45.65106,-17.61927 5.76302,-3.47504 10.56224,-7.02543 17.4625,-12.91855 7.41719,-6.33455 11.17339,-9.11789 14.3589,-10.63981 3.46629,-1.65612 4.03998,-1.19546 2.42465,1.94694 -1.29607,2.52134 -4.88919,6.79034 -10.12508,12.02976 -7.55135,7.55636 -13.72446,11.88632 -26.23763,18.40368 -16.54592,8.61776 -31.32808,12.71206 -53.975,14.94973 -12.31526,1.21684 -48.67102,1.89562 -67.38055,1.25808 z M 89.047084,370.12175 c -3.35417,-0.14266 -6.17647,-0.33739 -6.27179,-0.43271 -0.25491,-0.25492 5.78394,-0.6047 16.95637,-0.98217 20.347016,-0.68746 72.947316,-0.28999 80.080546,0.60512 l 2.11667,0.2656 -2.64583,0.28388 c -3.4519,0.37035 -82.301356,0.59779 -90.235966,0.26028 z m 6.80403,-23.49651 c -31.63951,-0.99216 -45.65876,-1.77038 -66.49861,-3.69143 -37.6960101,-3.47483 -76.13201,-11.42972 -110.06231,-22.77894 -19.0089,-6.35822 -35.367604,-13.54391 -48.864104,-21.46395 -31.2398,-18.33231 -75.0153,-51.72696 -95.7838,-73.0697 -5.9259,-6.08982 -11.8531,-12.96119 -21.7231,-25.18367 -7.7857,-9.64142 -18.855,-24.77474 -27.4813,-37.57084 -16.9997,-25.21719 -24.8933,-36.00354 -31.0971,-42.49328 -4.924,-5.15098 -5.766,-7.32479 -4.384,-11.31813 2.7556,-7.96236 -2.7295,-22.937567 -9.6714,-26.404487 -0.9102,-0.45459 -2.4747,-1.05028 -3.4766,-1.32374 -1.8802,-0.51321 -14.1341,-1.35882 -14.6922,-1.01388 -0.4507,0.2785 -9.9563,-0.49898 -12.8821,-1.05364 -4.971,-0.94236 -8.3219,-2.83205 -8.866,-4.9998 -0.5309,-2.11515 0.97,-5.02763 3.4812,-6.7554 0.8345,-0.57414 3.0225,-1.55634 4.8621,-2.18266 5.478,-1.86498 21.7998,-8.43004 25.2171,-10.14292 4.488,-2.24959 6.7697,-3.89109 9.4848,-6.82365 2.9715,-3.2095 5.3515,-7.91714 7.1162,-14.07591 2.5726,-8.97841 3.4333,-11.53463 4.8644,-14.44679 1.7787,-3.61947 4.6592,-6.89863 6.5085,-7.40924 3.7515,-1.03583 8.0033,3.04817 9.5325,9.15603 0.9357,3.7379 1.8863,5.38445 4.7712,8.26418 6.0416,6.03102 18.0472,13.21184 41.3307,24.72095 21.7395,10.74588 47.2816,21.56946 75.4945,31.99108 15.788,5.83197 30.6667,10.72439 65.6166,21.576087 98.2377039,30.50202 137.914604,39.55172 196.673654,44.85827 43.617086,3.93908 77.180296,3.71655 105.480546,-0.69934 37.21657,-5.80718 77.62025,-22.59165 99.44925,-41.31314 6.03553,-5.17634 9.40474,-9.51765 12.56983,-16.196697 3.60729,-7.61212 6.04999,-17.15518 7.58511,-29.63333 1.5549,-12.6391 4.24712,-20.69917 7.60768,-22.77609 0.97737,-0.60406 1.61477,-0.73347 2.97082,-0.60317 4.19749,0.40332 6.9409,5.03924 8.46705,14.30787 0.89397,5.42944 1.85067,8.76649 3.55854,12.41281 1.15923,2.47494 1.89886,3.47544 4.30332,5.82083 4.09067,3.99024 5.84574,7.50701 8.33755,16.70685 1.84768,6.82159 3.98198,18.448327 5.15934,28.105897 0.0946,0.77611 0.3211,2.52236 0.50328,3.88056 0.4482,3.34158 0.94971,8.83567 1.5779,17.28611 1.84362,24.80045 1.78252,54.27073 -0.17332,83.60833 -1.69372,25.40572 -5.34585,39.75241 -15.14179,59.48186 -13.2377,26.66136 -28.75025,38.69337 -62.28429,48.3096 -9.53858,2.73526 -25.50519,5.75614 -46.45398,8.789 -18.94872,2.74334 -38.74061,4.42743 -66.78768,5.68308 -7.81064,0.34963 -68.13489,0.71733 -76.199986,0.46443 z m 15.698606,-18.48919 c 9.93694,-0.74719 12.25994,-2.4457 14.25776,-10.4248 1.24192,-4.96009 5.70981,-27.8917 6.402,-32.85835 0.92368,-6.62764 0.44079,-10.06945 -1.70173,-12.12942 -2.18998,-2.10563 -5.77064,-2.80205 -20.65874,-4.01807 -10.754706,-0.87842 -21.427966,-1.98025 -25.815956,-2.66502 -12.28093,-1.91658 -15.23947,-2.50092 -19.51718,-3.85484 -1.52594,-0.48299 -2.78691,-0.67864 -3.44371,-0.53439 -1.86704,0.41007 -3.32024,3.20005 -4.17072,8.00739 -0.99896,5.6467 -2.15307,24.69201 -2.14284,35.36135 0.0127,13.31672 1.49895,19.34442 5.14505,20.86786 2.24688,0.93881 11.16189,1.85565 23.07107,2.37264 6.23785,0.27079 24.369426,0.19188 28.574996,-0.12435 z m 59.26666,-0.5292 c 6.77813,-0.96729 10.51257,-2.28353 12.66091,-4.46254 3.92497,-3.98095 11.41413,-17.33945 16.74686,-29.8716 6.34354,-14.90747 5.60317,-16.14057 -10.53416,-17.54501 -8.05437,-0.70101 -21.6862,-0.52045 -25.83642,0.34216 -5.27015,1.09537 -6.12256,1.82912 -8.19213,7.05111 -3.32486,8.38941 -8.17305,30.90326 -8.25183,38.31936 -0.0495,4.65899 1.12875,6.1251 5.41511,6.73819 2.77064,0.39628 13.62568,0.0514 17.99166,-0.57167 z m 57.26211,-5.98192 c 8.72144,-1.49242 13.34802,-2.94633 15.61691,-4.90763 l 1.36902,-1.18339 -0.42005,-2.00254 c -0.96763,-4.61324 1.31618,-11.4644 9.24098,-27.7216 5.37795,-11.0326 6.39776,-13.56335 6.03998,-14.98896 -0.19562,-0.7794 -0.41049,-0.88604 -1.7853,-0.88604 -0.85958,0 -4.46815,0.69846 -8.01896,1.55212 -5.89058,1.41615 -10.17136,2.23682 -14.92275,2.86074 -2.57422,0.33803 -5.00672,2.92915 -7.70611,8.20868 -2.41353,4.72035 -2.80554,5.7301 -7.28924,18.77568 -1.90055,5.52979 -4.02692,11.62093 -4.72524,13.53584 -1.63029,4.47054 -1.65506,5.83276 -0.12926,7.11658 1.11626,0.93928 1.21024,0.95473 4.43364,0.72814 1.81127,-0.12732 5.54464,-0.61676 8.29638,-1.08762 z m -200.376706,0.14274 c 1.51695,-0.42125 3.90596,-2.41762 4.67671,-3.90807 0.75702,-1.46393 1.80668,-6.34634 2.22592,-10.354 1.11259,-10.63491 1.66299,-39.05775 0.83344,-43.03889 -0.62305,-2.98993 -2.33098,-6.28879 -3.8928,-7.51875 -2.84727,-2.24229 -6.09911,-3.48146 -15.47911,-5.89848 -16.71085015,-4.30607 -32.30805,-9.0823 -49.15515,-15.05232 -16.8271,-5.96297 -20.4055,-7.07549 -23.3438,-7.25734 -2.5302,-0.1566 -2.7639,-0.10989 -3.5914,0.71762 -1.248,1.24795 -1.5405,2.80352 -1.7756,9.44492 -0.3003,8.48363 -1.4691,14.56665 -4.0836,21.25366 -0.785,2.00766 -2.0019,4.59263 -2.7043,5.74438 -0.7024,1.15175 -2.3561,4.23722 -3.675,6.85659 -5.7475,11.41512 -7.9573,18.11355 -7.0667,21.42092 0.5202,1.93167 3.0953,4.26723 6.4712,5.86927 10.1464,4.81488 46.6254,14.6546 70.8558999,19.11244 13.8014201,2.53912 26.0725201,3.61653 29.7042901,2.60805 z M 272.0636,312.83668 c 3.36162,-0.54603 11.77505,-2.68799 18.16805,-4.62542 8.61992,-2.61224 16.21614,-6.51778 18.05605,-9.28331 1.52816,-2.2969 0.40189,-2.93165 -5.70572,-3.21564 -5.1392,-0.23897 -6.00862,-0.58734 -7.10551,-2.84698 -1.55141,-3.19596 -0.92847,-8.88679 2.15671,-19.70215 1.96134,-6.87578 2.40291,-10.03981 1.52375,-10.91897 -0.8981,-0.8981 -3.80319,-0.28042 -5.85749,1.24535 -3.92243,2.9133 -11.68939,14.80809 -17.0731,26.14672 -6.18821,13.03302 -9.54758,20.92117 -9.38625,22.03993 0.0595,0.41282 0.50511,0.9507 0.99018,1.19521 1.0778,0.54335 0.65285,0.54684 4.23333,-0.0349 z m 48.17201,-21.11524 c 0.52938,-0.62914 1.27184,-1.85945 1.64991,-2.73402 8.33787,-19.28806 14.52767,-34.67421 15.80794,-39.29412 1.39601,-5.0377 0.67225,-5.7646 -2.06284,-2.07172 -5.44904,7.35732 -13.74189,23.73079 -16.75077,33.07291 -2.18648,6.78875 -2.44598,9.97444 -0.93546,11.48497 0.92382,0.92381 1.16988,0.8746 2.29122,-0.45802 z m -423.70392,-7.66776 c 2.0161,-1.40498 4.287104,-4.90379 7.905004,-12.17863 7.5301,-15.14158 12.6924,-30.50124 13.2953,-39.5575 0.1701,-2.55546 0.08,-3.5324 -0.4929,-5.3328 -2.0106,-6.32111 -5.8024,-9.06904 -16.3911,-11.87853 -11.412204,-3.02799 -28.306904,-9.57026 -50.177404,-19.43061 -17.2412,-7.77321 -21.4783,-9.43878 -25.1316,-9.87901 -2.126,-0.25622 -3.2422,0.30071 -4.0953,2.04336 -0.521,1.06426 -0.7112,2.65712 -0.9472,7.93471 -0.1624,3.63174 -0.4668,7.47628 -0.6763,8.54343 -1.1507,5.8607 -3.26,11.3338 -5.6856,14.75257 -0.8602,1.21239 -2.0746,2.9234 -2.6987,3.80224 -4.0346,5.68145 -0.6001,9.44573 24.7708,27.14854 9.0098,6.28671 34.7897,23.46265 41.8041,27.8522 6.5819,4.11882 12.1439,7.0969 13.6931,7.33167 1.6923,0.25647 3.3875,-0.14788 4.8278,-1.15164 z m -102.0965,-74.20621 c 2.0822,-1.09897 3.673,-3.27554 4.6386,-6.34658 0.6943,-2.20821 0.7959,-3.28288 0.7898,-8.35501 -0.01,-8.13774 -1.3543,-15.09109 -3.9021,-20.17995 -1.8864,-3.76787 -6.454,-8.16214 -11.7895,-11.34219 -10.9617,-6.5333 -43.8264,-21.07748 -44.9925,-19.91134 -1.0965,1.09647 21.8781,33.81371 35.2504,50.19876 6.4617,7.91757 12.6936,14.62779 15.024,16.17705 1.2253,0.81456 3.1589,0.72111 4.9813,-0.24074 z m 256.514364,-0.0314 c 2.01405,-0.74795 3.62882,-2.4929 4.18585,-4.52338 0.72577,-2.64541 0.0363,-17.40024 -1.13351,-24.2581 -1.36228,-7.98621 -5.82316,-11.20415 -20.50154,-14.78925 -12.24992,-2.99195 -65.12326,-13.57598 -70.82286,-14.17712 -1.5148,-0.15974 -2.3778,0.36322 -3.5094,2.12662 -1.5315,2.38661 -3.0163,6.65335 -4.6108,13.2497 -5.6979,23.57162 -5.477,21.93981 -3.3118,24.46937 5.2143,6.0918 43.8014999,15.43769 76.51951,18.53321 0.77611,0.0734 5.93549,0.10062 11.46528,0.0604 8.59109,-0.0624 10.29645,-0.16305 11.71927,-0.69145 z m 86.478596,0.0314 c 2.82258,-0.66446 4.27408,-1.43683 5.30553,-2.82314 0.63564,-0.85436 0.73332,-1.43781 0.67907,-4.05694 -0.10252,-4.94937 -4.10898,-22.75364 -5.41384,-24.05849 -0.70647,-0.70648 -4.11861,-1.26972 -18.0244,-2.9754 -23.485896,-2.88079 -35.243516,-3.71161 -38.622216,-2.72913 -2.49456,0.72542 -3.76195,1.83491 -4.72757,4.13869 -0.87651,2.09119 -0.88194,2.17134 -0.88194,13.04025 0,9.48207 0.0833,11.2056 0.62674,12.963 1.05269,3.4043 3.24369,5.31473 7.14816,6.23284 3.71249,0.87295 8.38126,1.01956 29.619536,0.92999 18.66854,-0.0787 22.22648,-0.17565 24.29093,-0.66167 z m 53.67295,0.1027 c 16.1677,-0.74659 30.59808,-2.44811 39.15833,-4.6172 8.5198,-2.15885 9.18542,-3.88683 5.96255,-15.47883 -3.50337,-12.60076 -5.1205,-15.82338 -8.87709,-17.69018 -1.56178,-0.77611 -2.0538,-0.8286 -7.4924,-0.79932 -6.06637,0.0325 -8.57892,0.30864 -27.34028,3.00358 -22.00578,3.16096 -26.87362,4.58241 -29.11863,8.50297 -0.8062,1.40787 -0.86483,1.83889 -0.83005,6.10101 0.0414,5.07379 0.9058,12.44364 1.77917,15.16944 1.9051,5.9459 5.7428,6.77898 26.7584,5.80853 z m 79.13575,-6.51278 c 10.72991,-2.24592 12.9855,-3.64063 15.97705,-9.87908 2.83214,-5.90589 4.02813,-13.16168 3.98329,-24.16528 -0.0342,-8.42355 -0.26296,-9.97578 -2.2449,-15.24067 -2.1015,-5.58246 -4.2164,-5.56891 -16.40396,0.10506 -12.14776,5.65545 -16.41771,8.84481 -17.47777,13.05472 -0.43487,1.72699 -0.19932,3.15122 1.71527,10.37117 1.27381,4.8036 2.36901,11.0719 2.86611,16.40417 0.68612,7.35986 1.94624,11.43748 3.42389,11.0793 0.35154,-0.0852 4.02399,-0.86342 8.16102,-1.72939 z m 48.32991,-16.05424 c 2.23499,-1.01427 8.08846,-5.52623 9.25058,-7.13049 2.21992,-3.06454 2.09955,-6.43234 -0.55842,-15.62213 -3.44861,-11.92346 -7.90335,-23.65646 -11.10907,-29.25932 -1.39016,-2.42972 -3.76591,-5.14589 -4.48797,-5.13111 -1.66515,0.0342 -2.26536,2.97099 -2.46535,12.06292 -0.32223,14.6498 2.36908,38.69936 4.89479,43.73985 1.08356,2.16243 2.0356,2.44751 4.47544,1.34028 z m -391.952066,-1.8541 c 1.6636,-1.77084 3.4863,-7.28137 6.4029,-19.35818 3.2759,-13.56463 3.8153,-17.55659 2.725,-20.16619 -0.7093,-1.6976 -2.8251,-3.36039 -6.4769,-5.09027 -4.2291,-2.00335 -8.768,-3.46611 -33.263204,-10.71979 -21.162,-6.2666 -25.6865,-7.64116 -46.9194,-14.25398 -22.097,-6.88189 -28.9407,-8.67925 -30.2927,-7.95563 -1.6352,0.87506 -3.2004,5.36444 -3.2151,9.22108 -0.013,3.51571 2.5235,9.33467 6.9874,16.02722 3.8681,5.79928 6.8189,9.40802 12.2202,14.94448 5.0785,5.20566 8.2377,7.92776 12.0993,10.4255 3.4365,2.22271 4.5968,2.6646 8.5425,3.25317 7.4964,1.1182 21.4728,5.68131 39.5195,12.90261 14.348004,5.74124 29.559404,11.46143 30.718304,11.55153 0.1117,0.009 0.5402,-0.34301 0.9522,-0.78155 z M -204.11391,140.79881 c 1.4813,-2.99283 1.6916,-14.81829 0.4662,-26.21488 -0.9706,-9.02646 -2.3543,-12.65965 -6.335,-16.634137 -4.7211,-4.71373 -10.5148,-8.11201 -34.2439,-20.08557 -28.8309,-14.54788 -39.0244,-19.02724 -44.9845,-19.76781 -2.5974,-0.32273 -4.6215,0.46834 -5.7206,2.23569 -0.7077,1.13805 -0.7994,1.7373 -0.7907,5.16788 0.017,6.5314 2.3577,15.06782 6.4933,23.6758 6.8971,14.355657 14.6823,20.373437 46.7663,36.149347 19.643,9.65859 36.2683,17.12464 37.3945,16.79307 0.194,-0.0571 0.6235,-0.65084 0.9544,-1.31939 z m 544.19736,-15.95759 c 0.40189,-4.8562 -7.44745,-18.40586 -9.12583,-15.75311 -0.4561,0.72086 -0.41137,1.51359 0.22497,3.98596 1.07569,4.17961 4.24561,10.08073 6.62083,12.32542 1.39125,1.31477 2.14019,1.1314 2.28003,-0.55827 z m -706.19486,16.11983 c -9.2805,-2.46885 -26.3692,-9.80955 -33.5355,-14.40572 -5.4393,-3.48848 -13.0236,-12.23285 -16.3804,-18.88585 -2.8869,-5.72176 -4.3728,-12.328837 -6.1514,-27.352767 -1.5426,-13.02977 -1.9206,-20.677 -1.9182,-38.80555 0,-23.16605 0.5897,-30.25535 3.1511,-38.0748003 1.9307,-5.89389 7.4265,-15.1248497 13.4572,-22.6029797 7.0447,-8.7354 18.0396,-17.78923 24.1607,-19.89518 4.0271,-1.38555 11.6515,-2.58981 23.0374,-3.63872 5.5615,-0.51235 46.0478,-0.61636 51.4834,-0.13227 5.9264,0.5278 4.0994,0.78011 -20.644,2.85095 -34.2883,2.86967 -52.2105,5.38243 -56.6375,7.94082 -4.8405,2.7973 -14.2646,13.57641 -21.897,25.0452297 -6.7456,10.13637 -9.106,15.9608 -10.5793,26.1055603 -0.7325,5.04363 -1.0387,29.33916 -0.4884,38.7476 1.0083,17.23873 3.2968,32.97576 5.908,40.6274 1.2339,3.615797 3.9776,8.865727 6.1153,11.701217 4.1131,5.45584 10.3909,10.154 21.1631,15.83774 18.3269,9.66992 25.5368,14.06956 24.8576,15.16849 -0.2974,0.48123 -2.8607,0.36509 -5.1021,-0.23117 z m 492.9193,0.20976 c -9.45995,-0.99494 -17.31247,-4.00569 -22.08047,-8.46593 -2.99223,-2.79904 -4.29606,-5.38257 -4.27327,-8.46733 0.0215,-2.93039 1.11023,-5.1259 3.80538,-7.67482 2.22617,-2.10542 3.1677,-2.55574 5.34363,-2.55574 2.03133,0 4.02671,0.90833 7.23822,3.29498 5.47286,4.06714 8.38606,4.80843 13.65776,3.47532 6.23097,-1.57568 12.19443,-5.37203 19.77224,-12.58704 8.76991,-8.350037 17.74515,-20.264287 20.20041,-26.815197 1.33819,-3.57049 1.02969,-7.05377 -0.99649,-11.25147 -3.06628,-6.35249 -8.4563,-11.5027 -12.03833,-11.5027 -1.37739,0 -6.29998,-2.54824 -9.97021,-5.16118 -4.00057,-2.84816 -10.42828,-9.25545 -12.45584,-12.4163 -3.98579,-6.21362 -5.4573,-13.63769 -5.46619,-27.57807 -0.008,-13.1045803 -1.08292,-18.2036203 -4.65229,-22.0759103 -1.80523,-1.9584497 -4.39504,-3.5860697 -11.12237,-6.9900997 -6.89649,-3.4896 -11.32706,-6.40908 -14.281606,-9.41065 -4.24787,-4.31548 -4.05268,-6.48581 0.798576,-8.879 3.42671,-1.69045 7.92155,-2.60564 14.26129,-2.90373 6.31511,-0.29694 10.38683,-0.97451 14.87004,-2.47453 6.48201,-2.16878 10.89078,-4.76845 20.48972,-12.08192 10.37399,-7.90398 23.08193,-14.53959 32.9619,-17.21147 6.26787,-1.69506 19.59493,-3.53892 32.04361,-4.4334 8.97051,-0.64455 29.36459,-0.52689 35.78024,0.20643 13.20359,1.5092 22.26003,5.34526 31.13754,13.18904 5.64395,4.98675 9.28222,10.16115 9.28222,13.20133 0,3.68369 -4.14172,8.96047 -8.64306,11.01173 -5.74283,2.617 -22.19466,5.18456 -48.50694,7.57024 -20.82292,1.88798 -36.91258,4.15784 -50.44722,7.1169 -10.64154,2.32653 -18.20467,4.89008 -25.4,8.60939 -7.44827,3.8500597 -8.70641,6.4498897 -8.35526,17.2653697 0.46267,14.2506903 2.37984,21.8219303 6.90143,27.2551903 2.24137,2.69327 4.58311,4.43252 13.0593,9.69936 14.71359,9.1426 27.55244,18.25395 36.22262,25.7061 2.34301,2.01386 7.1168,6.41101 10.60838,9.77145 11.39822,10.97005 17.39639,14.66393 25.8535,15.92145 5.37718,0.79955 13.73639,4.92933 20.21092,9.985017 3.87621,3.02676 7.32966,6.77143 7.32966,7.94769 0,0.84402 -0.0686,0.8715 -1.67569,0.67116 -2.14306,-0.26712 -5.55576,-1.74879 -14.55208,-6.31782 -14.39983,-7.313387 -31.18609,-13.679877 -36.06924,-13.679877 -3.37559,0 -5.76336,1.53451 -8.62259,5.54134 -3.54528,4.968237 -6.47644,5.748457 -10.01437,2.665597 -3.01798,-2.629757 -5.03467,-2.766467 -9.09052,-0.616227 -4.01754,2.129907 -8.26104,5.887907 -21.5755,19.106907 -7.08202,7.03125 -13.98831,13.70351 -15.34735,14.82725 -4.69519,3.88232 -8.25179,5.8939 -12.34571,6.9825 -2.54511,0.67677 -9.80306,0.95391 -13.84599,0.52867 z M 242.81038,-50.735207 c 5.06917,-0.32847 6.32266,-0.53564 6.32266,-1.04496 0,-0.78955 -8.52519,-1.75689 -15.52222,-1.7613 -6.87433,-0.004 -14.46389,0.91748 -14.46389,1.75676 0,1.07857 13.78173,1.6898 23.66345,1.0495 z M -18.448906,121.92576 c -5.4036,-2.00893 -13.6684,-7.29301 -17.0237,-10.88418 -5.0928,-5.45081 -6.4041,-11.03881 -6.4236,-27.373477 -0.012,-10.4631 0.9941,-15.61888 3.9392,-20.17544 4.1245,-6.38136 11.5615,-10.5288 23.0359,-12.84655 4.5927,-0.92769 18.1092099,-0.94018 22.4013899,-0.0207 10.9008301,2.33522 14.5406901,7.6119 9.0430301,13.10956 -2.26585,2.26587 -4.41258,3.12206 -10.2359801,4.0825 -19.0335399,3.13913 -25.0436399,5.29545 -27.5392399,9.88062 -0.8052,1.47955 -1.0279,2.40792 -1.1679,4.8692 -0.2138,3.75978 0.4073,6.46332 2.441,10.62581 1.2182,2.49318 2.0752,3.61448 5.0845,6.65242 2.2791,2.300777 4.0547,4.456267 4.7949,5.820817 1.0553999,1.94564 1.1754999,2.45724 1.1754999,5.00757 0,2.56498 -0.1263,3.09538 -1.3026999,5.46806 -1.5068,3.03921 -4.1678,5.87526 -5.7568,6.13561 -0.5799,0.095 -1.6894,-0.0633 -2.4655,-0.35182 z m -353.392304,-5.59728 c -7.6556,-2.25217 -17.3035,-20.636597 -21.3978,-40.774267 -2.2353,-10.99452 -2.1006,-23.98221 0.3587,-34.57222 5.8615,-25.24058 23.9922,-49.1497503 44.937,-59.25885 9.6391,-4.65238 18.8531,-6.15107 37.7472,-6.13979 11.8699,0.007 18.7365,0.52449 28.0458,2.11322 9.8857,1.6871 14.1299,2.95607 20.3772,6.09249 24.9922,12.5472097 56.0261,23.3378797 73.229,25.4621697 4.625,0.57113 12.4252,0.2552 17.2257,-0.69769 14.2907,-2.83664 31.9936,-10.51244 42.8937,-18.5981997 1.5022,-1.1144 4.4796,-3.7997 6.6163,-5.96733 2.1368,-2.16763 4.8308,-4.60366 5.9868,-5.41341 5.7957,-4.05991 13.0961,-3.65177 16.592804,0.92764 1.582,2.07188 1.7715,3.43189 0.8581,6.1585 -2.821204,8.4221797 -15.733404,20.9904597 -31.379604,30.54394 -9.7617,5.96045 -18.6619,9.23169 -31.1257,11.44008 -3.9664,0.70278 -5.5233,0.76734 -18.6159,0.77197 -12.7528,0.005 -14.8559,-0.0763 -19.5792,-0.75241 -15.3289,-2.19423 -30.6582,-6.27792 -47.2722,-12.59317 -15.0243,-5.7109603 -28.6693,-11.9083203 -32.4556,-14.7407703 -2.6272,-1.96539 -3.1538,-2.24078 -5.9049,-3.08785 -9.6718,-2.97803 -27.6423,-2.76499 -42.7151,0.50638 -11.5801,2.51332 -17.8998,5.96648 -25.2009,13.7701203 -11.6808,12.48463 -21.8942,32.56662 -22.8971,45.02097 -0.5005,6.21554 2.226,16.98227 8.3251,32.87448 2.3186,6.0414 3.9409,12.816697 4.16,17.372907 0.168,3.4948 0.1103,4.04361 -0.5646,5.36643 -1.7242,3.37975 -5.1134,5.09587 -8.2448,4.17466 z m 746.64396,-2.73456 c -1.35537,-1.35537 0.12418,-3.05466 4.44348,-5.10345 10.54735,-5.00291 21.3663,-10.249397 27.2257,-13.202717 17.59246,-8.86714 20.35245,-12.57328 25.90979,-34.79203 5.46951,-21.86761 5.69729,-31.86839 1.05237,-46.20271 -3.75648,-11.5925103 -11.15229,-21.9299803 -18.85755,-26.3581 -8.30912,-4.77513 -14.40667,-9.41128 -21.71076,-16.50733 -7.56556,-7.35007 -10.06344,-8.79295 -17.26191,-9.97114 -4.19322,-0.68632 -8.7146,-0.74408 -31.39722,-0.40113 -27.20678,0.41135 -36.47785,-0.18154 -39.64513,-2.53535 -1.97799,-1.46996 -0.83224,-4.03863 2.3489,-5.26609 2.30897,-0.89093 7.36586,-0.81693 11.54345,0.16893 6.68475,1.57751 21.4182,2.53058 39.15834,2.53304 25.47683,0.003 29.02151,1.12656 44.1017,13.97233 11.02102,9.388 18.42477,14.64214 21.76204,15.4436 1.95362,0.46915 6.41213,7.0649997 10.72113,15.8605297 3.21776,6.56817 5.4489,12.6105003 6.66637,18.0538603 0.93546,4.18265 0.94495,4.35793 0.79164,14.64028 -0.11074,7.42603 -0.32629,11.46794 -0.75241,14.11111 -1.3965,8.66165 -5.15147,25.72987 -6.79093,30.86805 -2.41399,7.5657 -9.34114,14.25529 -21.81899,21.07079 -9.40051,5.134637 -28.10919,12.593767 -33.86667,13.502637 -0.77611,0.12248 -1.8113,0.29605 -2.30042,0.38562 -0.4891,0.0896 -1.08441,-0.0321 -1.32292,-0.27073 z M 10.831674,111.33668 c -4.0512701,-2.1027 -6.1736101,-7.01848 -6.1736101,-14.299227 0,-6.08118 1.22227,-8.63894 4.89288,-10.23904 4.8958501,-2.13418 22.5130801,-3.25691 34.7946101,-2.21743 15.55436,1.3165 29.42262,6.96233 29.82013,12.1399 0.23622,3.07709 -0.67207,4.343807 -4.01027,5.592797 -3.79515,1.41994 -6.34492,1.60337 -22.81124,1.64097 -16.31622,0.0373 -18.29153,0.17451 -23.8125,1.6545 -2.62199,0.70284 -2.9724,0.91218 -4.93889,2.95004 -3.17278,3.28796 -5.30641,4.05154 -7.76111,2.77749 z M 385.16602,82.555733 c -1.15239,-1.64524 0.70901,-4.11301 10.20385,-13.5279 4.30484,-4.26862 8.40059,-8.63424 9.10159,-9.70139 3.62903,-5.52433 3.85156,-10.54152 1.27212,-28.68116 -1.99679,-14.04245 -3.71376,-21.0399003 -6.16373,-25.1203303 -2.57616,-4.29054 -4.98182,-6.10099 -14.99895,-11.28788 -7.92547,-4.10381 -11.1954,-6.1624597 -13.33161,-8.3931697 -1.64984,-1.72281 -1.41961,-2.50987 0.77512,-2.64996 5.10727,-0.326 20.2425,5.42717 27.84228,10.5833297 1.21394,0.82363 2.52716,2.12345 3.24831,3.21517 4.47844,6.77996 9.31834,34.2419403 9.33813,52.9853903 0.008,7.36417 -0.75713,10.49958 -3.65386,14.97748 -5.03442,7.78239 -16.23222,17.0122 -21.98257,18.11915 -0.90258,0.17375 -1.23991,0.0677 -1.65068,-0.51873 z m -514.61083,-5.60469 c -0.8931,-0.50785 -1.2133,-3.41078 -0.4672,-4.23526 0.9792,-1.08197 4.2895,-1.99326 10.7451,-2.95801 4.0534,-0.60576 10.5454,-0.97103 22.401404,-1.26039 18.0455,-0.44042 27.2985,-1.21736 34.7348,-2.91656 3.9684,-0.90678 6.0726,-2.17651 7.5288,-4.54315 1.4603,-2.37319 1.5689,-3.92646 0.4588,-6.56386 -1.1308,-2.68666 -1.1515,-3.6247 -0.1018,-4.61088 2.8289,-2.65764 6.5559,1.42998 6.8767,7.54216 0.2143,4.0831 -0.5342,6.32722 -2.9978,8.98829 -1.8818,2.03254 -3.8286,3.19576 -6.812,4.07032 -4.8956,1.43505 -19.742,3.02921 -39.1584,4.2047 -17.702704,1.07174 -29.783604,2.00255 -31.926404,2.45988 -0.388,0.0828 -0.965,0.003 -1.282,-0.17724 z M 273.6511,48.507493 c -7.78958,-0.64588 -18.9248,-2.65356 -22.79318,-4.10962 -9.77883,-3.68074 -16.25106,-9.86804 -17.63797,-16.86147 -0.48433,-2.44211 0.16033,-5.04609 1.81461,-7.32975 1.77003,-2.44343 4.01225,-2.96512 9.1596,-2.13113 3.36627,0.54541 6.82847,1.80088 13.01284,4.71874 6.94245,3.27554 8.40997,3.7757 11.6816,3.98135 4.68425,0.29444 7.84673,-1.30235 21.31822,-10.76392 11.6581,-8.1879503 16.34207,-10.8501003 22.99635,-13.0700403 6.97113,-2.32566 14.27832,-3.06073 27.65209,-2.78168 22.1936,0.46308 34.82248,4.37739 43.27486,13.4130303 2.6108,2.79096 3.84094,4.86628 4.60008,7.76075 0.5067,1.93192 0.52846,2.53835 0.15141,4.22321 -0.8171,3.65108 -4.24419,6.95837 -7.21045,6.95837 -3.28648,0 -8.5797,-1.96989 -14.74273,-5.48655 -6.11452,-3.48897 -11.66911,-5.40144 -19.54678,-6.73004 -5.06137,-0.85362 -15.74147,-0.84746 -20.46111,0.0118 -7.34868,1.33791 -10.56827,2.76122 -13.95412,6.16892 -3.12318,3.14329 -4.25549,4.86293 -7.56532,11.48927 -2.48991,4.98483 -3.03594,5.82238 -4.63702,7.11276 -2.09017,1.68456 -5.11972,2.80119 -8.94493,3.29694 -2.43088,0.31504 -14.86027,0.40334 -18.16805,0.12907 z M -8.5711061,-1.5269973 c -1.3582,-0.64491 -7.6287999,-3.66707 -13.9346999,-6.71592 -21.5879,-10.4375497 -27.058,-12.8128997 -37.7472,-16.3912997 -10.7684,-3.60491 -20.5309,-5.89928 -32.1729,-7.56122 -9.404004,-1.34246 -15.135304,-1.72523 -25.682704,-1.71521 -15.9267,0.0151 -25.6264,1.08732 -45.5083,5.03048 -12.2568,2.43087 -20.5102,3.17729 -25.9744,2.34906 -5.9089,-0.89564 -10.422,-3.05449 -14.3605,-6.86942 -5.4047,-5.23513 -5.9761,-8.71801 -2.5843,-15.7522 5.7629,-11.95151 23.5931,-27.33199 40.1355,-34.62121 11.9612,-5.27057 29.8126,-9.41422 50.5851,-11.74175 9.9503,-1.11493 17.662204,-1.45607 31.750004,-1.40449 15.002,0.0549 19.1779,0.33474 28.6267,1.91827 6.3412,1.06271 9.8177,1.95444 15.1377,3.88279 28.7599,10.42471 65.13058,35.14791 69.26248,47.08167 0.65515,1.89215 0.85214,6.49869 0.4432,10.36313 -0.53178,5.02517 -1.80777,7.54446 -6.09032,12.02454 -3.96328,4.14608 -10.26029,9.2772 -16.0280001,13.0604497 -7.44856005,4.88575 -12.86816,8.29715 -13.13156,8.26561 -0.141,-0.0169 -1.3676,-0.55837 -2.7258,-1.20328 z m 6.3502,-27.0253897 c 0.8691,-0.4085 2.43209995,-1.66297 3.4734,-2.78771 4.63598,-5.0074 3.10909,-8.74945 -6.9247,-16.97055 -7.0800999,-5.80105 -12.9737999,-9.53822 -22.7498999,-14.42555 -9.6637,-4.83121 -16.1705,-7.38909 -25.8411,-10.1585 -10.2694,-2.94084 -15.1038,-3.42859 -16.5624,-1.67102 -0.2333,0.28111 -0.6486,2.43759 -0.9228,4.79218 -0.5733,4.92226 -1.1496,7.59624 -2.6733,12.40298 -1.2457,3.93001 -1.178,5.45667 0.2931,6.61385 1.2542,0.98652 2.7607,1.32502 7.7259,1.73593 7.9581,0.6586 15.0086,2.9155 26.7184,8.5527 13.4081,6.4547 23.0491,10.6088 27.7064,11.93801 3.3447999,0.95464 7.6998999,0.94468 9.7569999,-0.0223 z M -177.30631,-46.369217 c 6.2494,-1.54616 9.9806,-2.73445 13.2163,-4.20902 3.3543,-1.52861 6.7324,-3.90218 7.4052,-5.20319 0.4777,-0.92387 0.4701,-1.08357 -0.08,-1.69167 -0.8615,-0.95197 -2.7111,-1.37759 -5.97,-1.37384 -5.872,0.007 -11.7002,2.35446 -15.7191,6.33191 -2.1106,2.08879 -4.961,5.84783 -5.5005,7.25375 -0.2434,0.6342 -0.7023,0.71068 6.6483,-1.10794 z m -55.3276,25.88862 c -0.1469,-0.23761 -0.3854,-1.30414 -0.5301,-2.37004 -0.5022,-3.70127 1.5156,-5.69946 6.421,-6.35839 2.7965,-0.37564 6.4269,-0.0549 7.1099,0.62822 0.7608,0.76078 -1.9281,2.83514 -8.7327,6.7368 -3.2981,1.89112 -3.8359,2.0629 -4.2681,1.36341 z m -13.1802,-15.23219 c -10.0239,-1.78459 -17.2862,-5.56759 -17.2862,-9.00457 0,-0.96822 1.094,-1.60936 4.2136,-2.46953 6.5224,-1.79841 29.6957,-5.32977 34.8189,-5.30601 2.1766,0.0101 2.352,0.0619 1.7511,0.51674 -0.3673,0.27803 -4.7329,2.11076 -9.7014,4.07271 -13.4299,5.30325 -15.5434,6.4651 -13.9197,7.65232 0.8456,0.61835 2.1522,0.96178 9.1195,2.39694 6.881,1.41739 7.1154,1.4848 6.6736,1.91889 -0.5814,0.57119 -12.7411,0.74386 -15.6694,0.22251 z m 387.95276,-32.31355 c -0.48704,-1.16616 -1.66116,-16.2524 -1.66116,-21.34449 0,-16.078713 4.50632,-29.237473 11.12086,-32.473673 1.83378,-0.89719 1.97468,-0.91552 2.81316,-0.36615 0.64498,0.42263 0.88265,0.89018 0.88265,1.73644 0,1.75576 -1.30612,5.25661 -2.85563,7.65397 -2.98097,4.61215 -4.96224,9.4212 -6.67537,16.202813 -1.53469,6.07523 -2.0786,10.005 -2.49234,18.00775 -0.40657,7.86323 -0.78616,11.41172 -1.13217,10.58334 z m -355.26206,-23.16574 c -0.8892,-0.88921 0.5001,-4.01953 3.3556,-7.561 9.5672,-11.865123 30.0309,-28.899723 45.9157,-38.221593 9.0544,-5.31354 22.6564,-10.83048 37.3304,-15.1412 13.7934,-4.05201 22.8305,-5.68499 40.163104,-7.25739 16.04,-1.45513 24.5125,-1.81708 47.2722,-2.01949 18.7764,-0.16699 23.6204,-0.10607 29.9341999,0.37646 9.43909995,0.72136 14.74696,1.45445 17.66528,2.43978 4.3610701,1.47249 2.8142101,2.23428 -5.6189,2.76718 -5.87748,0.3714 -13.6657799,0.26637 -31.3971799,-0.42342 -19.8092,-0.77061 -50.8598,0.71411 -67.0278,3.205 -18.144804,2.79545 -41.899104,10.06574 -56.973604,17.43745 -9.0327,4.41711 -19.1962,11.11583 -29.9861,19.76367 -4.9038,3.93021 -8.2618,6.95603 -16.0514,14.4635 -7.5328,7.259923 -13.4,11.352513 -14.5815,10.171053 z m 506.91237,-2.34058 c -1.01759,-1.33414 -2.11222,-3.71408 -4.26262,-9.267903 -3.28227,-8.47718 -6.84018,-13.70285 -13.11666,-19.26527 -7.74164,-6.86084 -25.85099,-17.36342 -36.30496,-21.05516 -5.0624,-1.78776 -8.0168,-2.21328 -16.72445,-2.40881 -19.88354,-0.4465 -65.11456,4.33296 -81.13889,8.57377 -3.4128,0.90319 -9.40488,1.48007 -11.05965,1.06475 -1.18784,-0.29812 -1.79483,-1.39003 -1.2935,-2.32677 2.13279,-3.98513 21.07551,-7.50104 58.91982,-10.93594 19.24653,-1.74689 25.05043,-2.12787 32.40175,-2.12691 14.96226,0.002 19.98857,1.31154 36.5663,9.52725 13.50112,6.69099 19.09731,10.40068 25.77056,17.08325 2.3096,2.31283 4.74793,5.18713 5.98297,7.0528 3.98885,6.02562 6.17008,13.2623 6.17008,20.470753 0,5.12125 -0.31165,5.71072 -1.91075,3.61419 z m -279.386926,-4.56799 c -0.27845,-1.01864 -1.08882,-4.709583 -1.80079,-8.202083 -0.71198,-3.4925 -1.85657,-8.01688 -2.54357,-10.05417 -3.0473301,-9.03701 -7.9129801,-17.7855 -13.3417801,-23.98889 -4.5679,-5.21958 -7.0363999,-9.07904 -6.8132999,-10.65251 0.1913999,-1.35019 1.8529999,-1.2317 4.5248999,0.3227 2.9316,1.70544 10.79233,9.50564 13.34556,13.24279 3.6990501,5.41422 6.6082001,12.72188 7.4229001,18.64597 0.8775,6.38075 0.89087,22.538273 0.0187,22.538273 -0.16845,0 -0.53411,-0.83343 -0.81255,-1.85208 z m -255.277344,-0.71358 c 0,-1.791743 7.0682,-10.750683 14.6403,-18.556733 10.7519,-11.08403 26.6257,-23.18022 44.2736,-33.73742 16.4826,-9.86012 51.2021,-24.38331 68.6657,-28.72296 18.240804,-4.53276 53.785904,-9.05239 80.912104,-10.2881 11.1775,-0.50919 35.0753199,-0.21793 42.50972,0.51809 10.11993,1.00189 19.13361,2.35152 31.75,4.75399 23.90493,4.55207 52.09984,7.44487 78.316656,8.03528 24.71247,0.55652 73.46876,-2.19655 113.24166,-6.3943 5.32607,-0.56213 12.84768,-0.88751 20.57164,-0.88992 12.30958,-0.004 17.17424,0.87265 22.64364,4.07975 5.61146,3.2904 9.6623,7.34971 9.45508,9.47485 -0.10545,1.08119 -0.12534,1.0914 -2.05945,1.05578 -2.15311,-0.0397 -4.51005,-1.07456 -10.37424,-4.5552 -6.16564,-3.65958 -9.26599,-4.41098 -19.2212,-4.65846 -8.53027,-0.21205 -13.84385,0.0977 -32.12797,1.87304 -22.58945,2.19333 -33.60631,2.99417 -56.26805,4.09025 -13.61489,0.6585 -50.23107,0.5499 -63.5,-0.18834 -27.532456,-1.53183 -40.182226,-2.93917 -63.852766,-7.10392 -20.03767,-3.52555 -33.2457101,-4.91853 -50.62362,-5.33896 -24.5904,-0.59493 -58.1794,2.62967 -86.7833,8.33135 -37.076404,7.39053 -81.209704,28.08242 -108.473504,50.85783 -1.9372,1.61825 -6.8584,6.17909 -10.9361,10.13521 -8.1374,7.89474 -14.4118,13.32059 -18.4592,15.96275 -2.5527,1.666483 -4.3007,2.181073 -4.3007,1.266143 z"
       style="fill:#000000;stroke-width:0.352778" />
  </g>
</svg>
